<mxfile host="app.diagrams.net" modified="2022-01-21T02:22:50.542Z" agent="5.0 (Windows NT 10.0; Win64; x64) AppleWebKit/537.36 (KHTML, like Gecko) Chrome/97.0.4692.71 Safari/537.36 Edg/97.0.1072.62" etag="L_BIittqiRtKS5Su31OK" version="16.4.3" type="github">
  <diagram name="Page-1" id="5f0bae14-7c28-e335-631c-24af17079c00">
    <mxGraphModel dx="1675" dy="934" grid="1" gridSize="10" guides="1" tooltips="1" connect="1" arrows="1" fold="1" page="1" pageScale="1" pageWidth="1100" pageHeight="850" background="none" math="0" shadow="0">
      <root>
        <mxCell id="0" />
        <mxCell id="1" parent="0" />
        <mxCell id="39150e848f15840c-1" value="统一门户" style="verticalAlign=top;align=left;spacingTop=8;spacingLeft=2;spacingRight=12;shape=cube;size=10;direction=south;fontStyle=4;html=1;rounded=0;shadow=0;comic=0;labelBackgroundColor=none;strokeWidth=1;fontFamily=Verdana;fontSize=18;" parent="1" vertex="1">
          <mxGeometry x="120" y="70" width="330" height="320" as="geometry" />
        </mxCell>
        <mxCell id="39150e848f15840c-2" value="统一管理" style="verticalAlign=top;align=left;spacingTop=8;spacingLeft=2;spacingRight=12;shape=cube;size=10;direction=south;fontStyle=4;html=1;rounded=0;shadow=0;comic=0;labelBackgroundColor=none;strokeWidth=1;fontFamily=Verdana;fontSize=18;" parent="1" vertex="1">
          <mxGeometry x="850" y="70" width="520" height="370" as="geometry" />
        </mxCell>
        <mxCell id="39150e848f15840c-4" value="PC门户" style="html=1;rounded=0;shadow=0;comic=0;labelBackgroundColor=none;strokeWidth=1;fontFamily=Verdana;fontSize=12;align=center;" parent="1" vertex="1">
          <mxGeometry x="160" y="140" width="110" height="50" as="geometry" />
        </mxCell>
        <mxCell id="39150e848f15840c-5" value="内容管理后台" style="shape=component;align=left;spacingLeft=36;rounded=0;shadow=0;comic=0;labelBackgroundColor=none;strokeWidth=1;fontFamily=Verdana;fontSize=12;html=1;" parent="1" vertex="1">
          <mxGeometry x="310" y="170" width="120" height="60" as="geometry" />
        </mxCell>
        <mxCell id="ZJF9qfAngsYHFAXgRAQW-3" value="档案管理" style="shape=component;align=left;spacingLeft=36;rounded=0;shadow=0;comic=0;labelBackgroundColor=none;strokeWidth=1;fontFamily=Verdana;fontSize=12;html=1;" vertex="1" parent="1">
          <mxGeometry x="900" y="210" width="120" height="60" as="geometry" />
        </mxCell>
        <mxCell id="ZJF9qfAngsYHFAXgRAQW-5" value="内容运营人员" style="shape=umlActor;verticalLabelPosition=bottom;verticalAlign=top;html=1;" vertex="1" parent="1">
          <mxGeometry x="510" y="210" width="30" height="60" as="geometry" />
        </mxCell>
        <mxCell id="ZJF9qfAngsYHFAXgRAQW-6" value="互联网用户" style="shape=umlActor;verticalLabelPosition=bottom;verticalAlign=top;html=1;" vertex="1" parent="1">
          <mxGeometry x="30" y="200" width="30" height="60" as="geometry" />
        </mxCell>
        <mxCell id="ZJF9qfAngsYHFAXgRAQW-13" value="" style="endArrow=classic;html=1;rounded=0;exitX=1;exitY=0.3333333333333333;exitDx=0;exitDy=0;exitPerimeter=0;" edge="1" parent="1" source="ZJF9qfAngsYHFAXgRAQW-6" target="39150e848f15840c-4">
          <mxGeometry width="50" height="50" relative="1" as="geometry">
            <mxPoint x="470" y="360" as="sourcePoint" />
            <mxPoint x="520" y="310" as="targetPoint" />
          </mxGeometry>
        </mxCell>
        <mxCell id="ZJF9qfAngsYHFAXgRAQW-14" value="" style="endArrow=classic;html=1;rounded=0;exitX=0;exitY=0.3333333333333333;exitDx=0;exitDy=0;exitPerimeter=0;entryX=1;entryY=0.5;entryDx=0;entryDy=0;" edge="1" parent="1" source="ZJF9qfAngsYHFAXgRAQW-5" target="39150e848f15840c-5">
          <mxGeometry width="50" height="50" relative="1" as="geometry">
            <mxPoint x="470" y="360" as="sourcePoint" />
            <mxPoint x="520" y="310" as="targetPoint" />
          </mxGeometry>
        </mxCell>
        <mxCell id="ZJF9qfAngsYHFAXgRAQW-15" value="移动门户" style="html=1;rounded=0;shadow=0;comic=0;labelBackgroundColor=none;strokeWidth=1;fontFamily=Verdana;fontSize=12;align=center;" vertex="1" parent="1">
          <mxGeometry x="160" y="210" width="110" height="50" as="geometry" />
        </mxCell>
        <mxCell id="ZJF9qfAngsYHFAXgRAQW-16" value="各寺公众号*N" style="html=1;rounded=0;shadow=0;comic=0;labelBackgroundColor=none;strokeWidth=1;fontFamily=Verdana;fontSize=12;align=center;" vertex="1" parent="1">
          <mxGeometry x="230" y="290" width="110" height="50" as="geometry" />
        </mxCell>
        <mxCell id="ZJF9qfAngsYHFAXgRAQW-19" value="" style="endArrow=open;endSize=12;dashed=1;html=1;rounded=0;exitX=0;exitY=0.3;exitDx=0;exitDy=0;entryX=1;entryY=0.5;entryDx=0;entryDy=0;" edge="1" parent="1" source="39150e848f15840c-5" target="39150e848f15840c-4">
          <mxGeometry width="160" relative="1" as="geometry">
            <mxPoint x="420" y="340" as="sourcePoint" />
            <mxPoint x="580" y="340" as="targetPoint" />
          </mxGeometry>
        </mxCell>
        <mxCell id="ZJF9qfAngsYHFAXgRAQW-20" value="" style="endArrow=open;endSize=12;dashed=1;html=1;rounded=0;exitX=0;exitY=0.3;exitDx=0;exitDy=0;entryX=1;entryY=0.25;entryDx=0;entryDy=0;" edge="1" parent="1" source="39150e848f15840c-5" target="ZJF9qfAngsYHFAXgRAQW-15">
          <mxGeometry width="160" relative="1" as="geometry">
            <mxPoint x="320" y="163" as="sourcePoint" />
            <mxPoint x="280" y="175" as="targetPoint" />
          </mxGeometry>
        </mxCell>
        <mxCell id="ZJF9qfAngsYHFAXgRAQW-21" value="" style="endArrow=classic;html=1;rounded=0;entryX=0;entryY=0.5;entryDx=0;entryDy=0;exitX=1;exitY=0.3333333333333333;exitDx=0;exitDy=0;exitPerimeter=0;" edge="1" parent="1" source="ZJF9qfAngsYHFAXgRAQW-6" target="ZJF9qfAngsYHFAXgRAQW-15">
          <mxGeometry width="50" height="50" relative="1" as="geometry">
            <mxPoint x="150" y="-20" as="sourcePoint" />
            <mxPoint x="216.21621621621625" y="150" as="targetPoint" />
          </mxGeometry>
        </mxCell>
        <mxCell id="ZJF9qfAngsYHFAXgRAQW-22" value="" style="endArrow=classic;html=1;rounded=0;entryX=0;entryY=0.5;entryDx=0;entryDy=0;" edge="1" parent="1" target="ZJF9qfAngsYHFAXgRAQW-16">
          <mxGeometry width="50" height="50" relative="1" as="geometry">
            <mxPoint x="60" y="220" as="sourcePoint" />
            <mxPoint x="160" y="315" as="targetPoint" />
          </mxGeometry>
        </mxCell>
        <mxCell id="ZJF9qfAngsYHFAXgRAQW-23" value="" style="endArrow=classic;html=1;rounded=0;entryX=1;entryY=0.5;entryDx=0;entryDy=0;" edge="1" parent="1" target="ZJF9qfAngsYHFAXgRAQW-16">
          <mxGeometry width="50" height="50" relative="1" as="geometry">
            <mxPoint x="510" y="230" as="sourcePoint" />
            <mxPoint x="400" y="280" as="targetPoint" />
          </mxGeometry>
        </mxCell>
        <mxCell id="ZJF9qfAngsYHFAXgRAQW-24" value="物资管理" style="shape=component;align=left;spacingLeft=36;rounded=0;shadow=0;comic=0;labelBackgroundColor=none;strokeWidth=1;fontFamily=Verdana;fontSize=12;html=1;" vertex="1" parent="1">
          <mxGeometry x="1040" y="120" width="120" height="60" as="geometry" />
        </mxCell>
        <mxCell id="ZJF9qfAngsYHFAXgRAQW-25" value="服务管理" style="shape=component;align=left;spacingLeft=36;rounded=0;shadow=0;comic=0;labelBackgroundColor=none;strokeWidth=1;fontFamily=Verdana;fontSize=12;html=1;" vertex="1" parent="1">
          <mxGeometry x="1190" y="120" width="120" height="60" as="geometry" />
        </mxCell>
        <mxCell id="ZJF9qfAngsYHFAXgRAQW-26" value="入住管理" style="shape=component;align=left;spacingLeft=36;rounded=0;shadow=0;comic=0;labelBackgroundColor=none;strokeWidth=1;fontFamily=Verdana;fontSize=12;html=1;" vertex="1" parent="1">
          <mxGeometry x="1190" y="300" width="120" height="60" as="geometry" />
        </mxCell>
        <mxCell id="ZJF9qfAngsYHFAXgRAQW-27" value="考勤管理" style="shape=component;align=left;spacingLeft=36;rounded=0;shadow=0;comic=0;labelBackgroundColor=none;strokeWidth=1;fontFamily=Verdana;fontSize=12;html=1;" vertex="1" parent="1">
          <mxGeometry x="1040" y="210" width="120" height="60" as="geometry" />
        </mxCell>
        <mxCell id="ZJF9qfAngsYHFAXgRAQW-28" value="系统管理" style="shape=component;align=left;spacingLeft=36;rounded=0;shadow=0;comic=0;labelBackgroundColor=none;strokeWidth=1;fontFamily=Verdana;fontSize=12;html=1;" vertex="1" parent="1">
          <mxGeometry x="1190" y="210" width="120" height="60" as="geometry" />
        </mxCell>
        <mxCell id="ZJF9qfAngsYHFAXgRAQW-32" value="寺院管理人员" style="shape=umlActor;verticalLabelPosition=bottom;verticalAlign=top;html=1;" vertex="1" parent="1">
          <mxGeometry x="750" y="240" width="30" height="60" as="geometry" />
        </mxCell>
        <mxCell id="ZJF9qfAngsYHFAXgRAQW-33" value="" style="endArrow=classic;html=1;rounded=0;exitX=1;exitY=0.3333333333333333;exitDx=0;exitDy=0;exitPerimeter=0;entryX=0;entryY=0;entryDx=190;entryDy=520;entryPerimeter=0;" edge="1" parent="1" source="ZJF9qfAngsYHFAXgRAQW-32" target="39150e848f15840c-2">
          <mxGeometry width="50" height="50" relative="1" as="geometry">
            <mxPoint x="780" y="230" as="sourcePoint" />
            <mxPoint x="880" y="194.51612903225805" as="targetPoint" />
          </mxGeometry>
        </mxCell>
        <mxCell id="ZJF9qfAngsYHFAXgRAQW-34" value="孤邸管理" style="shape=component;align=left;spacingLeft=36;rounded=0;shadow=0;comic=0;labelBackgroundColor=none;strokeWidth=1;fontFamily=Verdana;fontSize=12;html=1;" vertex="1" parent="1">
          <mxGeometry x="1040" y="300" width="120" height="60" as="geometry" />
        </mxCell>
        <mxCell id="ZJF9qfAngsYHFAXgRAQW-35" value="空中学院" style="verticalAlign=top;align=left;spacingTop=8;spacingLeft=2;spacingRight=12;shape=cube;size=10;direction=south;fontStyle=4;html=1;rounded=0;shadow=0;comic=0;labelBackgroundColor=none;strokeWidth=1;fontFamily=Verdana;fontSize=18;" vertex="1" parent="1">
          <mxGeometry x="390" y="510" width="820" height="440" as="geometry" />
        </mxCell>
        <mxCell id="ZJF9qfAngsYHFAXgRAQW-42" value="内容运营人员" style="shape=umlActor;verticalLabelPosition=bottom;verticalAlign=top;html=1;" vertex="1" parent="1">
          <mxGeometry x="290" y="680" width="30" height="60" as="geometry" />
        </mxCell>
        <mxCell id="ZJF9qfAngsYHFAXgRAQW-43" value="" style="endArrow=classic;html=1;rounded=0;exitX=1;exitY=0.3333333333333333;exitDx=0;exitDy=0;exitPerimeter=0;" edge="1" parent="1" source="ZJF9qfAngsYHFAXgRAQW-42" target="ZJF9qfAngsYHFAXgRAQW-45">
          <mxGeometry width="50" height="50" relative="1" as="geometry">
            <mxPoint x="320" y="670" as="sourcePoint" />
            <mxPoint x="420" y="634.516129032258" as="targetPoint" />
          </mxGeometry>
        </mxCell>
        <mxCell id="ZJF9qfAngsYHFAXgRAQW-45" value="学院管理后台" style="shape=folder;fontStyle=0;spacingTop=10;tabWidth=40;tabHeight=14;tabPosition=left;html=1;verticalAlign=top;fontSize=15;align=left;" vertex="1" parent="1">
          <mxGeometry x="410" y="550" width="780" height="200" as="geometry" />
        </mxCell>
        <mxCell id="ZJF9qfAngsYHFAXgRAQW-38" value="教师管理" style="shape=component;align=left;spacingLeft=36;rounded=0;shadow=0;comic=0;labelBackgroundColor=none;strokeWidth=1;fontFamily=Verdana;fontSize=12;html=1;" vertex="1" parent="1">
          <mxGeometry x="740" y="580" width="120" height="60" as="geometry" />
        </mxCell>
        <mxCell id="ZJF9qfAngsYHFAXgRAQW-36" value="课程资料" style="shape=component;align=left;spacingLeft=36;rounded=0;shadow=0;comic=0;labelBackgroundColor=none;strokeWidth=1;fontFamily=Verdana;fontSize=12;html=1;" vertex="1" parent="1">
          <mxGeometry x="900" y="660" width="120" height="60" as="geometry" />
        </mxCell>
        <mxCell id="ZJF9qfAngsYHFAXgRAQW-37" value="学籍管理" style="shape=component;align=left;spacingLeft=36;rounded=0;shadow=0;comic=0;labelBackgroundColor=none;strokeWidth=1;fontFamily=Verdana;fontSize=12;html=1;" vertex="1" parent="1">
          <mxGeometry x="590" y="580" width="120" height="60" as="geometry" />
        </mxCell>
        <mxCell id="ZJF9qfAngsYHFAXgRAQW-39" value="系统管理" style="shape=component;align=left;spacingLeft=36;rounded=0;shadow=0;comic=0;labelBackgroundColor=none;strokeWidth=1;fontFamily=Verdana;fontSize=12;html=1;" vertex="1" parent="1">
          <mxGeometry x="900" y="580" width="120" height="60" as="geometry" />
        </mxCell>
        <mxCell id="ZJF9qfAngsYHFAXgRAQW-40" value="考试系统" style="shape=component;align=left;spacingLeft=36;rounded=0;shadow=0;comic=0;labelBackgroundColor=none;strokeWidth=1;fontFamily=Verdana;fontSize=12;html=1;" vertex="1" parent="1">
          <mxGeometry x="430" y="660" width="120" height="60" as="geometry" />
        </mxCell>
        <mxCell id="ZJF9qfAngsYHFAXgRAQW-41" value="问答管理" style="shape=component;align=left;spacingLeft=36;rounded=0;shadow=0;comic=0;labelBackgroundColor=none;strokeWidth=1;fontFamily=Verdana;fontSize=12;html=1;" vertex="1" parent="1">
          <mxGeometry x="590" y="660" width="120" height="60" as="geometry" />
        </mxCell>
        <mxCell id="ZJF9qfAngsYHFAXgRAQW-46" value="学院门户" style="shape=folder;fontStyle=0;spacingTop=10;tabWidth=40;tabHeight=14;tabPosition=left;html=1;verticalAlign=top;fontSize=15;align=left;" vertex="1" parent="1">
          <mxGeometry x="410" y="770" width="780" height="140" as="geometry" />
        </mxCell>
        <mxCell id="ZJF9qfAngsYHFAXgRAQW-47" value="在线考试" style="shape=component;align=left;spacingLeft=36;rounded=0;shadow=0;comic=0;labelBackgroundColor=none;strokeWidth=1;fontFamily=Verdana;fontSize=12;html=1;" vertex="1" parent="1">
          <mxGeometry x="430" y="810" width="120" height="60" as="geometry" />
        </mxCell>
        <mxCell id="ZJF9qfAngsYHFAXgRAQW-48" value="在线问答" style="shape=component;align=left;spacingLeft=36;rounded=0;shadow=0;comic=0;labelBackgroundColor=none;strokeWidth=1;fontFamily=Verdana;fontSize=12;html=1;" vertex="1" parent="1">
          <mxGeometry x="590" y="810" width="120" height="60" as="geometry" />
        </mxCell>
        <mxCell id="ZJF9qfAngsYHFAXgRAQW-49" value="在线翻译" style="shape=component;align=left;spacingLeft=36;rounded=0;shadow=0;comic=0;labelBackgroundColor=none;strokeWidth=1;fontFamily=Verdana;fontSize=12;html=1;" vertex="1" parent="1">
          <mxGeometry x="900" y="810" width="120" height="60" as="geometry" />
        </mxCell>
        <mxCell id="ZJF9qfAngsYHFAXgRAQW-50" value="" style="endArrow=open;endSize=12;dashed=1;html=1;rounded=0;exitX=0.5;exitY=1;exitDx=0;exitDy=0;" edge="1" parent="1" source="ZJF9qfAngsYHFAXgRAQW-40" target="ZJF9qfAngsYHFAXgRAQW-47">
          <mxGeometry width="160" relative="1" as="geometry">
            <mxPoint x="320" y="198" as="sourcePoint" />
            <mxPoint x="280" y="232.5" as="targetPoint" />
          </mxGeometry>
        </mxCell>
        <mxCell id="ZJF9qfAngsYHFAXgRAQW-51" value="" style="endArrow=open;endSize=12;dashed=1;html=1;rounded=0;exitX=0.5;exitY=0;exitDx=0;exitDy=0;entryX=0.5;entryY=1;entryDx=0;entryDy=0;" edge="1" parent="1" source="ZJF9qfAngsYHFAXgRAQW-49" target="ZJF9qfAngsYHFAXgRAQW-36">
          <mxGeometry width="160" relative="1" as="geometry">
            <mxPoint x="1120" y="830" as="sourcePoint" />
            <mxPoint x="1120" y="830" as="targetPoint" />
          </mxGeometry>
        </mxCell>
        <mxCell id="ZJF9qfAngsYHFAXgRAQW-52" value="" style="endArrow=open;endSize=12;dashed=1;html=1;rounded=0;exitX=0.5;exitY=1;exitDx=0;exitDy=0;entryX=0.5;entryY=0;entryDx=0;entryDy=0;" edge="1" parent="1" source="ZJF9qfAngsYHFAXgRAQW-41" target="ZJF9qfAngsYHFAXgRAQW-48">
          <mxGeometry width="160" relative="1" as="geometry">
            <mxPoint x="649.4100000000001" y="829.9999999999998" as="sourcePoint" />
            <mxPoint x="649.4100000000001" y="910" as="targetPoint" />
          </mxGeometry>
        </mxCell>
        <mxCell id="ZJF9qfAngsYHFAXgRAQW-53" value="互联网用户" style="shape=umlActor;verticalLabelPosition=bottom;verticalAlign=top;html=1;" vertex="1" parent="1">
          <mxGeometry x="290" y="830" width="30" height="60" as="geometry" />
        </mxCell>
        <mxCell id="ZJF9qfAngsYHFAXgRAQW-54" value="" style="endArrow=classic;html=1;rounded=0;exitX=1;exitY=0.3333333333333333;exitDx=0;exitDy=0;exitPerimeter=0;entryX=0;entryY=0;entryDx=0;entryDy=77;entryPerimeter=0;" edge="1" parent="1" source="ZJF9qfAngsYHFAXgRAQW-53" target="ZJF9qfAngsYHFAXgRAQW-46">
          <mxGeometry width="50" height="50" relative="1" as="geometry">
            <mxPoint x="720" y="1110" as="sourcePoint" />
            <mxPoint x="410" y="934.516129032258" as="targetPoint" />
          </mxGeometry>
        </mxCell>
        <mxCell id="ZJF9qfAngsYHFAXgRAQW-55" value="" style="endArrow=open;endSize=12;dashed=1;html=1;rounded=0;exitX=0.071;exitY=0.816;exitDx=0;exitDy=0;entryX=0.5;entryY=0;entryDx=0;entryDy=0;exitPerimeter=0;" edge="1" parent="1" source="ZJF9qfAngsYHFAXgRAQW-3" target="ZJF9qfAngsYHFAXgRAQW-37">
          <mxGeometry width="160" relative="1" as="geometry">
            <mxPoint x="320" y="198" as="sourcePoint" />
            <mxPoint x="280" y="232.5" as="targetPoint" />
          </mxGeometry>
        </mxCell>
        <mxCell id="ZJF9qfAngsYHFAXgRAQW-56" value="" style="endArrow=open;endSize=12;dashed=1;html=1;rounded=0;exitX=0;exitY=0.7;exitDx=0;exitDy=0;" edge="1" parent="1">
          <mxGeometry width="160" relative="1" as="geometry">
            <mxPoint x="910" y="262" as="sourcePoint" />
            <mxPoint x="810" y="580" as="targetPoint" />
          </mxGeometry>
        </mxCell>
        <mxCell id="ZJF9qfAngsYHFAXgRAQW-58" value="禅修管理" style="shape=component;align=left;spacingLeft=36;rounded=0;shadow=0;comic=0;labelBackgroundColor=none;strokeWidth=1;fontFamily=Verdana;fontSize=12;html=1;" vertex="1" parent="1">
          <mxGeometry x="740" y="660" width="120" height="60" as="geometry" />
        </mxCell>
        <mxCell id="ZJF9qfAngsYHFAXgRAQW-59" value="图书馆" style="shape=component;align=left;spacingLeft=36;rounded=0;shadow=0;comic=0;labelBackgroundColor=none;strokeWidth=1;fontFamily=Verdana;fontSize=12;html=1;" vertex="1" parent="1">
          <mxGeometry x="1050" y="810" width="120" height="60" as="geometry" />
        </mxCell>
        <mxCell id="ZJF9qfAngsYHFAXgRAQW-60" value="" style="endArrow=open;endSize=12;dashed=1;html=1;rounded=0;exitX=0.5;exitY=1;exitDx=0;exitDy=0;entryX=0.5;entryY=0;entryDx=0;entryDy=0;" edge="1" parent="1" source="ZJF9qfAngsYHFAXgRAQW-36" target="ZJF9qfAngsYHFAXgRAQW-59">
          <mxGeometry width="160" relative="1" as="geometry">
            <mxPoint x="1119.4099999999999" y="829.9999999999998" as="sourcePoint" />
            <mxPoint x="1119.4099999999999" y="910" as="targetPoint" />
          </mxGeometry>
        </mxCell>
        <mxCell id="ZJF9qfAngsYHFAXgRAQW-61" value="" style="endArrow=open;endSize=12;dashed=1;html=1;rounded=0;entryX=0.5;entryY=0;entryDx=0;entryDy=0;exitX=0.5;exitY=1;exitDx=0;exitDy=0;" edge="1" parent="1" source="ZJF9qfAngsYHFAXgRAQW-58" target="ZJF9qfAngsYHFAXgRAQW-63">
          <mxGeometry width="160" relative="1" as="geometry">
            <mxPoint x="800" y="830" as="sourcePoint" />
            <mxPoint x="809.4099999999999" y="910" as="targetPoint" />
          </mxGeometry>
        </mxCell>
        <mxCell id="ZJF9qfAngsYHFAXgRAQW-62" value="" style="endArrow=open;endSize=12;dashed=1;html=1;rounded=0;exitX=0.75;exitY=0;exitDx=0;exitDy=0;entryX=0.75;entryY=1;entryDx=0;entryDy=0;" edge="1" parent="1" source="ZJF9qfAngsYHFAXgRAQW-59" target="ZJF9qfAngsYHFAXgRAQW-36">
          <mxGeometry width="160" relative="1" as="geometry">
            <mxPoint x="1289.9999999999998" y="849.9999999999998" as="sourcePoint" />
            <mxPoint x="1289.9999999999998" y="930" as="targetPoint" />
          </mxGeometry>
        </mxCell>
        <mxCell id="ZJF9qfAngsYHFAXgRAQW-63" value="禅修报告" style="shape=component;align=left;spacingLeft=36;rounded=0;shadow=0;comic=0;labelBackgroundColor=none;strokeWidth=1;fontFamily=Verdana;fontSize=12;html=1;" vertex="1" parent="1">
          <mxGeometry x="740" y="810" width="120" height="60" as="geometry" />
        </mxCell>
      </root>
    </mxGraphModel>
  </diagram>
</mxfile>
